<svg width="424" height="424" viewBox="0 0 424 424" fill="none" xmlns="http://www.w3.org/2000/svg">
	<circle cx="212" cy="212" r="212" fill="url(#paint0_linear_6_45)" />
	<circle cx="212" cy="212" r="177" fill="#111111" />
	<path d="M279.5 184.322L129 275.822C149.5 181.822 234.5 133.822 255.5 141.822C272.3 148.222 278.5 172.822 279.5 184.322Z" fill="url(#paint1_linear_6_45)" />
	<path d="M127 238.822C140.167 202.655 181.1 129.922 239.5 128.322C202 119.822 127 130.022 127 238.822Z" fill="url(#paint2_linear_6_45)" />
	<path d="M153 281.822C196 287.488 284.9 277.822 296.5 193.822C303 245.488 283.4 335.422 153 281.822Z" fill="url(#paint3_linear_6_45)" />
	<defs>
		<linearGradient id="paint0_linear_6_45" x1="107" y1="34.5" x2="312.5" y2="406.5" gradientUnits="userSpaceOnUse">
			<stop stop-color="#8FFCFF" />
			<stop offset="1" stop-color="#25AEB8" />
		</linearGradient>
		<linearGradient id="paint1_linear_6_45" x1="166.98" y1="151.934" x2="228.379" y2="275.97" gradientUnits="userSpaceOnUse">
			<stop stop-color="#8FFCFF" />
			<stop offset="1" stop-color="#25AEB8" />
		</linearGradient>
		<linearGradient id="paint2_linear_6_45" x1="155.39" y1="135.18" x2="210.155" y2="234.033" gradientUnits="userSpaceOnUse">
			<stop stop-color="#8FFCFF" />
			<stop offset="1" stop-color="#25AEB8" />
		</linearGradient>
		<linearGradient id="paint3_linear_6_45" x1="189.488" y1="202.323" x2="230.678" y2="305.515" gradientUnits="userSpaceOnUse">
			<stop stop-color="#8FFCFF" />
			<stop offset="1" stop-color="#25AEB8" />
		</linearGradient>
	</defs>
</svg>
